<svg xmlns="http://www.w3.org/2000/svg" width="1200" height="600" viewBox="0 0 1200 600" role="img" aria-label="Summon flow diagram for Universal Tower Defense">
  <defs>
    <linearGradient id="bg" x1="0" y1="0" x2="1" y2="1">
      <stop offset="0" stop-color="#020617"/>
      <stop offset="1" stop-color="#0b1220"/>
    </linearGradient>
    <linearGradient id="accent" x1="0" y1="0" x2="1" y2="0">
      <stop offset="0" stop-color="#38bdf8"/>
      <stop offset="1" stop-color="#8b5cf6"/>
    </linearGradient>
    <filter id="glow" x="-30%" y="-30%" width="160%" height="160%">
      <feGaussianBlur stdDeviation="6" result="blur"/>
      <feColorMatrix
        in="blur"
        type="matrix"
        values="1 0 0 0 0  0 1 0 0 0  0 0 1 0 0  0 0 0 0.55 0"
        result="glow"
      />
      <feMerge>
        <feMergeNode in="glow"/>
        <feMergeNode in="SourceGraphic"/>
      </feMerge>
    </filter>
    <style>
      .title { font: 700 30px system-ui, -apple-system, Segoe UI, Roboto, Arial; fill: #e2e8f0; }
      .sub { font: 500 16px system-ui, -apple-system, Segoe UI, Roboto, Arial; fill: #94a3b8; }
      .box { fill: rgba(15, 23, 42, 0.75); stroke: rgba(148, 163, 184, 0.25); stroke-width: 2; }
      .boxTitle { font: 700 18px ui-monospace, SFMono-Regular, Menlo, Monaco, Consolas, "Liberation Mono", "Courier New", monospace; fill: #e2e8f0; }
      .boxText { font: 500 14px system-ui, -apple-system, Segoe UI, Roboto, Arial; fill: #cbd5e1; }
      .pill { fill: rgba(56, 189, 248, 0.12); stroke: rgba(56, 189, 248, 0.35); stroke-width: 1.5; }
      .pillText { font: 700 12px system-ui, -apple-system, Segoe UI, Roboto, Arial; fill: #bae6fd; letter-spacing: .08em; }
      .arrow { stroke: url(#accent); stroke-width: 4; fill: none; stroke-linecap: round; stroke-linejoin: round; opacity: 0.9; }
      .legendLabel { font: 600 12px system-ui, -apple-system, Segoe UI, Roboto, Arial; fill: #cbd5e1; }
      .legendValue { font: 700 12px ui-monospace, SFMono-Regular, Menlo, Monaco, Consolas, "Liberation Mono", "Courier New", monospace; fill: #e2e8f0; }
    </style>
  </defs>

  <rect width="1200" height="600" fill="url(#bg)"/>
  <rect x="40" y="32" width="1120" height="536" rx="28" fill="rgba(2,6,23,0.15)" stroke="rgba(56,189,248,0.18)" />
  <rect x="40" y="32" width="1120" height="6" fill="url(#accent)" opacity="0.9"/>

  <text x="70" y="92" class="title">Summon → Team → Upgrade (Planning Flow)</text>
  <text x="70" y="122" class="sub">A quick way to think about Gems, banners, and how units become power over time.</text>

  <!-- Boxes -->
  <g filter="url(#glow)">
    <rect x="90" y="180" width="260" height="170" rx="18" class="box"/>
    <text x="120" y="220" class="boxTitle">1) Budget</text>
    <text x="120" y="252" class="boxText">Set a Gems cap before you summon.</text>
    <text x="120" y="278" class="boxText">Avoid “tilt summoning”.</text>
    <g>
      <rect x="120" y="304" width="160" height="28" rx="14" class="pill"/>
      <text x="134" y="323" class="pillText">GEMS PLAN</text>
    </g>

    <rect x="470" y="160" width="260" height="190" rx="18" class="box"/>
    <text x="500" y="200" class="boxTitle">2) Banner</text>
    <text x="500" y="232" class="boxText">Confirm what’s featured today.</text>
    <text x="500" y="258" class="boxText">Some banners may require</text>
    <text x="500" y="284" class="boxText">level milestones.</text>
    <g>
      <rect x="500" y="308" width="176" height="28" rx="14" class="pill"/>
      <text x="514" y="327" class="pillText">FEATURED UNITS</text>
    </g>

    <rect x="850" y="180" width="260" height="170" rx="18" class="box"/>
    <text x="880" y="220" class="boxTitle">3) Result</text>
    <text x="880" y="252" class="boxText">Rarity is only the start.</text>
    <text x="880" y="278" class="boxText">Role coverage wins runs.</text>
    <g>
      <rect x="880" y="304" width="166" height="28" rx="14" class="pill"/>
      <text x="894" y="323" class="pillText">ROLE CHECK</text>
    </g>

    <rect x="310" y="380" width="580" height="150" rx="22" class="box"/>
    <text x="340" y="422" class="boxTitle">4) Convert to Power</text>
    <text x="340" y="454" class="boxText">Invest into upgrades at breakpoints: fix leaks early, then scale for late waves.</text>
    <text x="340" y="480" class="boxText">Use calculators to compare paths (damage vs speed vs crit).</text>
    <g>
      <rect x="340" y="502" width="206" height="28" rx="14" class="pill"/>
      <text x="354" y="521" class="pillText">UPGRADE BREAKPOINTS</text>
    </g>
  </g>

  <!-- Arrows -->
  <path class="arrow" d="M360 260 C420 260, 430 240, 470 240"/>
  <path class="arrow" d="M730 240 C790 240, 800 260, 850 260"/>
  <path class="arrow" d="M600 350 C600 360, 600 370, 600 380"/>

  <!-- Legend -->
  <g opacity="0.95">
    <text x="70" y="558" class="legendLabel">Typical summon costs:</text>
    <text x="240" y="558" class="legendValue">50 Gems (1×)</text>
    <text x="360" y="558" class="legendValue">450 Gems (10×)</text>
    <text x="520" y="558" class="legendLabel">Use as a baseline; banners may vary.</text>
  </g>
</svg>
